# xmcd
#
# Track frame offsets: 
#        150
#        18588
#        35940
#        50494
#        65556
#        76380
#        93805
#        110211
#        126808
#        141541
#        156188
#        174387
#        191113
#        204993
#        218489
#        236503
#
# Disc length: 3316 seconds
#
# Revision: 0
# Processed by: cddbd v1.5.2PL0 Copyright (c) Steve Scherf et al.
# Submitted via: ExactAudioCopy v0.95b4
#
DISCID=e90cf210
DTITLE=Diamond Rio - 16 Biggest Hits
DYEAR=2007
DGENRE=Country
TTITLE0=How Your Love Makes Me Feel
TTITLE1=Walkin' Away
TTITLE2=Holdin'
TTITLE3=Meet In The Middle
TTITLE4=Unbelievable
TTITLE5=Beautiful Mess
TTITLE6=One More Day
TTITLE7=Love A Little Stronger
TTITLE8=Oh Me, Oh My, Sweet Baby
TTITLE9=Mirror Mirror
TTITLE10=You're Gone
TTITLE11=Nowhere Bound
TTITLE12=Norma Jean Riley
TTITLE13=In A Week Or Two
TTITLE14=I Believe
TTITLE15=This Romeo Ain't Got Julie Yet
EXTD=
EXTT0=
EXTT1=
EXTT2=
EXTT3=
EXTT4=
EXTT5=
EXTT6=
EXTT7=
EXTT8=
EXTT9=
EXTT10=
EXTT11=
EXTT12=
EXTT13=
EXTT14=
EXTT15=
PLAYORDER=
